<svg width="22" height="22" viewBox="0 0 22 22" fill="none" xmlns="http://www.w3.org/2000/svg">
<g id="check-circle" clip-path="url(#clip0_1161_120)">
<path id="Vector" d="M20.1666 10.1567V11C20.1655 12.9768 19.5254 14.9002 18.3418 16.4834C17.1582 18.0666 15.4946 19.2248 13.599 19.7853C11.7034 20.3457 9.67741 20.2784 7.82318 19.5934C5.96896 18.9084 4.38585 17.6423 3.30997 15.984C2.23408 14.3257 1.72306 12.3641 1.85312 10.3917C1.98318 8.41922 2.74736 6.54167 4.03167 5.03902C5.31599 3.53637 7.05164 2.48914 8.97976 2.05351C10.9079 1.61787 12.9252 1.81718 14.7308 2.62171" stroke="#868686" stroke-width="2" stroke-linecap="round" stroke-linejoin="round"/>
<path id="Vector_2" d="M20.1667 3.6665L11 12.8423L8.25 10.0923" stroke="#868686" stroke-width="2" stroke-linecap="round" stroke-linejoin="round"/>
</g>
<defs>
<clipPath id="clip0_1161_120">
<rect width="22" height="22" fill="white"/>
</clipPath>
</defs>
</svg>
