<svg width="22" height="22" viewBox="0 0 22 22" fill="none" xmlns="http://www.w3.org/2000/svg">
<g id="edit" clip-path="url(#clip0_415_332)">
<path id="Vector" d="M10.0833 3.6665H3.66659C3.18036 3.6665 2.71404 3.85966 2.37022 4.20347C2.02641 4.54729 1.83325 5.01361 1.83325 5.49984V18.3332C1.83325 18.8194 2.02641 19.2857 2.37022 19.6295C2.71404 19.9733 3.18036 20.1665 3.66659 20.1665H16.4999C16.9861 20.1665 17.4525 19.9733 17.7963 19.6295C18.1401 19.2857 18.3333 18.8194 18.3333 18.3332V11.9165" stroke="#868686" stroke-width="2" stroke-linecap="round" stroke-linejoin="round"/>
<path id="Vector_2" d="M16.9583 2.29171C17.3229 1.92704 17.8175 1.72217 18.3333 1.72217C18.849 1.72217 19.3436 1.92704 19.7083 2.29171C20.0729 2.65638 20.2778 3.15099 20.2778 3.66671C20.2778 4.18244 20.0729 4.67704 19.7083 5.04171L10.9999 13.75L7.33325 14.6667L8.24992 11L16.9583 2.29171Z" stroke="#868686" stroke-width="2" stroke-linecap="round" stroke-linejoin="round"/>
</g>
<defs>
<clipPath id="clip0_415_332">
<rect width="22" height="22" fill="white"/>
</clipPath>
</defs>
</svg>
